<?xml version="1.0" encoding="utf-8"?>
<!-- Generator: Adobe Illustrator 16.0.4, SVG Export Plug-In . SVG Version: 6.00 Build 0)  -->
<!DOCTYPE svg PUBLIC "-//W3C//DTD SVG 1.1 Tiny//EN" "http://www.w3.org/Graphics/SVG/1.1/DTD/svg11-tiny.dtd">
<svg version="1.1" baseProfile="tiny" id="Layer_1" xmlns="http://www.w3.org/2000/svg" xmlns:xlink="http://www.w3.org/1999/xlink"
	 x="0px" y="0px" width="137px" height="47px" viewBox="0 0 137 47" xml:space="preserve">
<g>
	<path fill="#F9A330" d="M0,5.365C0.306,4.816,0.644,4.273,1.102,3.84c0.52-0.492,1.144-0.631,1.845-0.658
		C4.996,3.104,6.84,2.996,8.892,2.996v24.33C8.51,28.389,7.827,28.848,7.11,29.23h8.156c-0.674-0.383-1.665-1.138-1.915-1.905
		c0,0,0-24.329,0-24.33c0-0.009,1.465,0.025,1.615,0.03c1.033,0.029,2.064,0.077,3.096,0.138c0.606,0.035,1.315-0.011,1.95,0.119
		c0.309,0.062,0.599,0.166,0.852,0.338c0.608,0.414,0.908,1.134,1.287,1.745l0.008-4.945H0V5.365z M57.81,27.369
		c-1.979,0-3.959-0.169-4.885-0.253v-13.05h6.866c0.59,0,1.264,0.678,1.475,1.188v-4.11c-0.211,0.509-0.885,1.187-1.475,1.187
		h-6.866V2.119c0,0,6.444,0.085,7.245,0.085c1.812,0,2.696,0.508,3.539,1.482l-0.083-3.305H47.576
		c0.674,0.339,1.179,0.932,1.179,1.907v24.996c0,0.844-0.357,1.33-0.906,1.69c-0.593-0.276-1.578-0.798-2.198-1.479
		c-1.811-1.988-6.319-9.743-6.319-9.743c-0.632-0.933-1.812-2.712-4.087-3.177c2.612-0.212,6.656-2.542,6.656-7.119
		c0-2.668-1.812-7.075-10.237-7.075h-8.337c0.632,0.339,1.137,0.932,1.137,1.907v24.996c0,0.934-0.505,1.527-1.137,1.907h6.693
		c-0.631-0.38-1.179-0.974-1.179-1.907V15.812c0,0,1.685,0,2.443,0c2.19,0,3.076,1.822,4.17,3.516
		c1.476,2.373,2.991,4.779,5.139,7.957c0.632,0.892,1.812,2.034,3.455,1.994l4.298-0.087h16.289l0.885-4.49
		C63.961,27.369,62.36,27.328,57.81,27.369z M31.285,13.941c-1.096,0-2.443-0.085-2.443-0.085V2.204c0,0,1.263-0.128,3.159-0.128
		c4.466,0,5.645,3.517,5.645,5.509C37.646,12.034,34.487,13.941,31.285,13.941z M87.016,2.289v17.678L71.562,0.382h-6.231
		c0.969,0.423,1.475,1.018,1.938,1.524c0.507,0.68,0.507,0.764,0.507,1.992v23.387c0,0.934-0.463,1.527-1.095,1.907h5.026
		c-0.76-0.38-1.18-0.974-1.18-1.907v-22.2c0,0.424,19.279,24.911,19.279,24.911V2.289c0-0.976,0.465-1.568,1.138-1.907h-5.025
		C86.551,0.721,87.016,1.313,87.016,2.289z M102.73,0.382H92.031c0.676,0.339,1.096,0.932,1.096,1.907v24.996
		c0,0.934-0.42,1.527-1.096,1.907h9.898c12.006,0,16.978-8.092,16.978-14.871C118.907,10.635,116.717,0.382,102.73,0.382z
		 M102.139,27.369c-1.262,0-3.242,0-4.76-0.084V2.289c0.928-0.17,3.793-0.085,5.352-0.085c8.719,0,11.796,6.862,11.796,12.118
		C114.526,20.635,111.746,27.369,102.139,27.369z M129.038,11.864c-4.044-2.034-5.729-3.008-5.729-5.678
		c0-1.821,1.095-4.49,4.676-4.49c3.96,0,6.319,3.474,6.824,5.507L134.6,1.611C132.62,0.297,130.134,0,128.575,0
		c-4.002,0-8.72,2.416-8.72,7.5c0,3.475,2.063,5.593,6.15,7.668c4.043,2.034,7.117,2.883,7.117,6.948
		c0,2.077-1.179,5.677-5.728,5.677c-4.507,0-6.783-3.896-7.667-6.946l0.127,6.354c1.557,0.893,4.169,2.373,7.834,2.373
		c4.509,0,9.311-3.348,9.311-8.643C137,15.254,133.084,13.896,129.038,11.864z"/>
</g>
<g>
	<path fill="#777777" d="M10.444,44.092V38.45h2.801v-0.84h-2.761V35.77L7.884,38.45h0.86v5.661c0,1.921,1.18,2.9,2.78,2.9
		c1.16,0,2-0.84,2.021-1.36c-0.28,0.24-0.48,0.521-1.28,0.521C11.645,46.172,10.444,45.973,10.444,44.092z M16.804,39.131V37.37
		l-2.46,0.479c0.34,0.101,0.72,0.181,0.72,0.801v7.422c0,0.439-0.2,0.58-0.521,0.76h2.781c-0.3-0.18-0.52-0.32-0.52-0.76V39.87
		c0.38-0.479,0.98-1.079,1.74-1.079c0.52,0,0.88,0.239,1.18,0.619v-1.88c-0.24-0.101-0.28-0.16-0.76-0.16
		C18.264,37.37,17.224,38.41,16.804,39.131z M28.643,41.511c0-2.961-2.06-4.141-3.761-4.141c-3.061,0-4.601,2.681-4.601,4.861
		c0,2.38,1.721,4.78,4.541,4.78c2.141,0,3.681-1.6,3.741-3.24c-0.38,0.94-1.801,2.08-3.201,2.08c-2.121,0-3.201-1.76-3.201-3.781
		v-0.56H28.643z M24.642,38.09c1.1,0,2.16,0.74,2.16,2.682h-4.561C22.401,39.391,23.182,38.09,24.642,38.09z M38.383,46.072V40.15
		c0-1.78-1.46-2.78-2.961-2.78c-1.28,0-2.44,0.94-2.88,1.421V37.37l-2.401,0.44c0.34,0.119,0.66,0.22,0.66,0.84v7.422
		c0,0.439-0.18,0.58-0.5,0.76h2.761c-0.32-0.18-0.52-0.32-0.52-0.76v-6.481c0.38-0.48,1.18-1.041,2.021-1.041
		c1.76,0,2.12,1.221,2.12,2.321v5.201c0,0.439-0.18,0.58-0.52,0.76h2.741C38.603,46.652,38.383,46.512,38.383,46.072z
		 M48.662,45.552V33.049l-2.46,0.48c0.32,0.12,0.7,0.18,0.7,0.801v3.7c-0.46-0.38-1.02-0.66-1.88-0.66c-2.9,0-4.601,2.5-4.601,4.7
		c0,2.461,1.18,4.941,3.941,4.941c1.08,0,2.121-0.64,2.601-1.08l0.04,1.08l2.36-0.66C49.062,46.232,48.662,46.172,48.662,45.552z
		 M46.902,45.232c-0.32,0.279-1.02,0.74-1.74,0.74c-0.94,0-2.901-0.781-2.901-3.981c0-2.221,1.18-3.821,3.041-3.821
		c0.82,0,1.321,0.48,1.601,0.94V45.232z M54.081,41.091c-1.061-0.6-1.701-0.98-1.701-1.82c0-0.521,0.48-1.2,1.5-1.2
		c1.22,0,1.88,1.24,2.201,2.28v-2.4c-0.92-0.48-1.681-0.58-2.201-0.58c-2.221,0-2.96,1.46-2.96,2.44c0,1.141,0.5,1.78,2.061,2.701
		c1.4,0.819,2.12,1.12,2.12,2.1c0,0.48-0.38,1.601-1.82,1.601c-1.32,0-2.22-1.32-2.541-2.721v2.581
		c0.66,0.42,1.541,0.939,2.661,0.939c1.46,0,3.361-0.939,3.361-2.78C56.762,42.591,55.361,41.831,54.081,41.091z M59.761,35.35
		c0.52,0,0.98-0.46,0.98-1.02c0-0.521-0.46-0.961-0.98-0.961c-0.54,0-1,0.44-1,0.961C58.76,34.89,59.221,35.35,59.761,35.35z
		 M60.641,46.072V37.37L58.2,37.85c0.32,0.101,0.7,0.181,0.7,0.801v7.422c0,0.439-0.22,0.58-0.52,0.76h2.781
		C60.841,46.652,60.641,46.512,60.641,46.072z M71.042,45.552V33.049l-2.461,0.48c0.32,0.12,0.7,0.18,0.7,0.801v3.7
		c-0.46-0.38-1.02-0.66-1.88-0.66c-2.9,0-4.601,2.5-4.601,4.7c0,2.461,1.181,4.941,3.941,4.941c1.081,0,2.121-0.64,2.601-1.08
		l0.039,1.08l2.361-0.66C71.441,46.232,71.042,46.172,71.042,45.552z M69.281,45.232c-0.32,0.279-1.02,0.74-1.74,0.74
		c-0.94,0-2.9-0.781-2.9-3.981c0-2.221,1.18-3.821,3.041-3.821c0.82,0,1.321,0.48,1.6,0.94V45.232z M81.562,41.511
		c0-2.961-2.061-4.141-3.761-4.141c-3.061,0-4.602,2.681-4.602,4.861c0,2.38,1.721,4.78,4.541,4.78c2.141,0,3.682-1.6,3.741-3.24
		c-0.38,0.94-1.8,2.08-3.2,2.08c-2.121,0-3.201-1.76-3.201-3.781v-0.56H81.562z M77.561,38.09c1.101,0,2.16,0.74,2.16,2.682H75.16
		C75.32,39.391,76.101,38.09,77.561,38.09z M89.941,45.432V40.07c0-2.36-1.98-2.7-3.141-2.7c-1.621,0-2.421,0.521-3.161,1l0.04,2.48
		c0.48-1.44,1.18-2.72,2.881-2.72c1.26,0,1.721,0.899,1.721,1.739c0,0.101,0,0.761-0.08,0.841c-0.621,0.66-3.021,0.96-4.081,1.601
		c-1.04,0.64-1.341,1.5-1.341,2.261c0,0.859,0.621,2.439,2.4,2.439c1.421,0,2.501-0.8,3.121-1.46c0.04,0.96,0.24,1.181,0.7,1.48
		l1.54-0.681C89.9,46.232,89.941,45.932,89.941,45.432z M88.281,44.852c-0.561,0.58-1.301,1.04-2.281,1.04
		c-0.939,0-1.52-0.6-1.52-1.66c0-1.021,0.72-1.521,1.66-1.86c0.939-0.32,1.5-0.439,2.141-0.76V44.852z M95.301,41.091
		c-1.061-0.6-1.701-0.98-1.701-1.82c0-0.521,0.48-1.2,1.5-1.2c1.221,0,1.881,1.24,2.201,2.28v-2.4c-0.92-0.48-1.681-0.58-2.201-0.58
		c-2.221,0-2.96,1.46-2.96,2.44c0,1.141,0.5,1.78,2.06,2.701c1.4,0.819,2.121,1.12,2.121,2.1c0,0.48-0.38,1.601-1.82,1.601
		c-1.32,0-2.221-1.32-2.541-2.721v2.581c0.66,0.42,1.541,0.939,2.661,0.939c1.46,0,3.36-0.939,3.36-2.78
		C97.98,42.591,96.58,41.831,95.301,41.091z M100.64,44.992c-0.56,0-1.021,0.42-1.021,0.98c0,0.539,0.461,0.959,1.021,0.959
		c0.54,0,0.96-0.42,0.96-0.959C101.6,45.412,101.18,44.992,100.64,44.992z M104.26,41.951c0-1.761,0.84-3.82,2.761-3.82
		c1.24,0,2.261,1.14,2.7,2.68V38.09c0,0-1.38-0.72-2.601-0.72c-3.32,0-4.661,2.881-4.661,4.841c0,2.221,1.341,4.801,4.381,4.801
		c2.261,0,3.241-1.74,3.301-2.4c-0.46,0.48-1.359,1.24-2.78,1.24C105.279,45.852,104.26,43.972,104.26,41.951z M115.7,37.37
		c-2.78,0-4.421,2.46-4.421,4.841c0,2.121,1.221,4.781,4.381,4.801c2.66,0,4.4-2.439,4.4-4.801
		C120.081,39.83,118.721,37.391,115.7,37.37z M115.801,46.232c-1.661,0.06-2.621-1.761-2.701-3.921
		c-0.061-2.121,0.66-4.161,2.42-4.222c1.781-0.08,2.641,1.961,2.721,3.98C118.341,44.292,117.541,46.152,115.801,46.232z
		 M133.701,46.832h2.781c-0.32-0.18-0.52-0.32-0.52-0.76V40.11c0-1.88-1.602-2.74-2.961-2.74c-1.281,0-2.541,0.94-3.161,1.761
		c-0.399-1.141-1.601-1.761-2.721-1.761c-1.36,0-2.44,1-2.921,1.38v-1.38l-2.439,0.479c0.34,0.101,0.719,0.181,0.719,0.801v7.422
		c0,0.439-0.199,0.58-0.52,0.76h2.801c-0.32-0.18-0.561-0.32-0.561-0.76V39.53c0.381-0.46,1.101-1.02,2.021-1.02
		c1.6,0,2.08,0.979,2.08,2.12v5.441c0,0.439-0.2,0.58-0.521,0.76h2.78c-0.32-0.18-0.52-0.32-0.52-0.76V40.07c0-0.1,0-0.2-0.04-0.3
		c0.5-0.7,1.36-1.26,2.16-1.26c1.54,0,2.101,1.02,2.101,2.2v5.361C134.262,46.512,134.002,46.652,133.701,46.832z"/>
</g>
</svg>
